<svg width="825" height="768" viewBox="0 0 825 768" fill="none" xmlns="http://www.w3.org/2000/svg" role="img" aria-label="Nobara logo">
  <defs>
    <linearGradient id="nobaraGrad" x1="107" y1="130" x2="649" y2="628" gradientUnits="userSpaceOnUse">
      <stop offset="0" stop-color="#3638BD"/>
      <stop offset="1" stop-color="#6655F5"/>
    </linearGradient>
    <mask id="nobaraCut">
      <rect width="825" height="768" fill="white"/>
      <circle cx="407" cy="385" r="48" fill="black"/>
      <path d="M497 366L570 385L497 406V366Z" fill="black"/>
      <path d="M363 480C419 480 464 525 464 581V628H393V581C393 553 370 530 342 530H319V502C319 490 329 480 341 480H363Z" fill="black"/>
    </mask>
  </defs>
  <path mask="url(#nobaraCut)" d="M165 146C221 146 267 183 294 237C332 177 405 146 494 146C578 146 649 217 649 302V556C649 595 617 627 578 627C537 627 502 594 502 553V412C502 346 449 293 383 293C317 293 264 346 264 412V553C264 594 230 627 189 627C144 627 107 590 107 545V222C107 180 141 146 165 146Z" fill="url(#nobaraGrad)"/>
</svg>
